<?xml version="1.0" standalone="no"?>
<!DOCTYPE svg PUBLIC "-//W3C//DTD SVG 20010904//EN"
 "http://www.w3.org/TR/2001/REC-SVG-20010904/DTD/svg10.dtd">
<svg version="1.0" xmlns="http://www.w3.org/2000/svg"
 width="300.000000pt" height="300.000000pt" viewBox="0 0 300.000000 300.000000"
 preserveAspectRatio="xMidYMid meet">
<metadata>
Created by potrace 1.10, written by Peter Selinger 2001-2011
</metadata>
<g transform="translate(0.000000,300.000000) scale(0.100000,-0.100000)"
fill="#000000" stroke="none">
<path d="M1314 2951 c-74 -45 -81 -98 -28 -206 39 -80 48 -150 25 -217 -16
-47 -32 -48 -53 -4 -65 135 -352 301 -599 347 -57 10 -70 10 -100 -5 -49 -23
-73 -67 -66 -120 8 -57 46 -89 127 -105 79 -16 216 -64 295 -104 62 -31 125
-75 125 -86 0 -3 -23 -21 -50 -39 -60 -41 -116 -121 -147 -210 -32 -93 -27
-268 10 -387 50 -157 123 -314 159 -339 55 -39 123 -26 167 30 28 36 26 74 -8
142 -73 147 -111 266 -116 370 -6 116 33 194 114 229 43 18 139 15 211 -8 l55
-17 45 43 c25 23 66 59 93 78 l47 36 -22 15 c-13 8 -35 20 -49 26 l-25 12 17
51 c21 60 24 140 8 220 -15 72 -87 216 -119 238 -41 28 -81 32 -116 10z m108
-28 c24 -22 64 -98 88 -169 34 -98 35 -170 4 -306 -5 -24 -1 -30 29 -48 l36
-21 -75 -66 c-57 -49 -81 -64 -97 -60 -12 3 -42 11 -67 18 -82 22 -187 7 -232
-33 -110 -101 -100 -308 27 -559 57 -112 50 -168 -24 -199 -22 -9 -36 -8 -62
3 -43 18 -107 137 -164 306 -14 41 -23 77 -20 79 3 3 1 10 -4 16 -16 20 -24
198 -12 257 21 96 63 170 135 236 36 33 66 67 66 75 0 17 -44 68 -59 68 -5 0
-16 6 -23 13 -19 18 -93 51 -168 77 -36 12 -74 26 -85 30 -25 10 -71 22 -108
26 -44 6 -68 23 -83 61 -21 50 -5 96 42 118 34 16 40 16 127 -5 97 -23 220
-68 225 -82 2 -4 12 -8 21 -8 10 0 29 -8 42 -18 13 -10 37 -23 52 -30 15 -6
33 -16 40 -22 114 -92 140 -117 157 -150 40 -78 86 -72 110 16 17 60 7 118
-35 206 -19 41 -35 82 -35 92 0 24 27 73 45 83 29 17 87 14 107 -4z"/>
<path d="M2305 2573 c-388 -50 -790 -313 -932 -610 -59 -122 -53 -183 16 -183
35 0 54 22 75 85 96 297 594 603 961 590 44 -2 94 -6 112 -10 26 -6 36 -3 58
19 27 27 27 56 1 83 -24 26 -182 40 -291 26z m232 -29 c38 -7 59 -39 42 -61
-9 -10 -23 -13 -48 -8 -126 24 -378 -13 -490 -71 -14 -8 -31 -14 -37 -14 -11
0 -33 -11 -151 -75 -117 -64 -265 -195 -334 -297 -23 -33 -56 -93 -75 -135
-29 -64 -37 -74 -57 -71 -67 9 12 195 147 345 47 52 167 153 182 153 4 0 17 9
28 19 42 39 241 138 311 155 6 2 21 7 35 13 24 10 81 24 165 42 47 10 239 14
282 5z"/>
<path d="M595 2528 c-3 -7 -29 -84 -59 -170 -34 -97 -79 -202 -118 -275 -71
-129 -102 -204 -124 -299 -61 -263 9 -544 204 -819 128 -180 426 -445 687
-610 583 -368 1214 -423 1414 -124 132 198 163 609 82 1086 -55 317 -139 526
-291 717 -32 41 -63 77 -69 80 -6 4 -53 -8 -105 -25 l-95 -32 64 -68 c148
-157 241 -343 293 -590 47 -217 57 -315 57 -564 0 -228 -2 -245 -27 -343 -46
-176 -89 -224 -233 -258 -84 -19 -248 -15 -365 11 -361 80 -776 320 -1091 634
-181 181 -293 358 -339 535 -24 96 -27 254 -5 341 8 33 55 141 104 240 88 177
198 463 188 490 -5 13 -71 37 -135 50 -22 5 -33 3 -37 -7z m60 -28 c3 -5 19
-10 34 -10 38 0 50 -15 41 -53 -25 -102 -99 -286 -173 -428 -143 -275 -162
-430 -82 -664 32 -96 128 -273 164 -305 3 -3 22 -25 42 -50 73 -91 216 -227
339 -323 45 -36 170 -126 205 -148 84 -54 177 -110 198 -119 12 -6 29 -14 37
-19 30 -19 155 -73 225 -98 38 -13 79 -28 90 -33 11 -4 70 -18 130 -31 230
-47 438 -22 530 62 57 53 97 162 123 342 9 69 9 355 -1 437 -21 166 -28 212
-47 309 -50 247 -146 461 -264 589 -19 20 -44 49 -55 64 l-21 27 70 22 70 23
30 -34 c141 -163 258 -423 304 -680 24 -130 24 -135 41 -295 41 -388 -10 -731
-131 -874 -29 -35 -105 -90 -132 -96 -9 -2 -37 -12 -62 -21 -25 -9 -89 -21
-143 -27 -82 -9 -119 -8 -230 7 -72 10 -152 24 -177 31 -25 7 -72 21 -105 30
-73 22 -286 115 -355 155 -28 17 -54 30 -59 30 -13 0 -294 191 -325 221 -16
16 -33 29 -36 29 -4 0 -18 10 -32 23 -14 12 -45 38 -69 57 -64 51 -197 187
-266 272 -177 218 -265 446 -262 673 2 178 28 267 143 488 43 83 91 196 117
272 23 72 47 136 52 143 11 15 33 16 42 2z"/>
<path d="M2260 2324 c-122 -26 -279 -93 -399 -171 -84 -55 -231 -207 -265
-276 -46 -93 -22 -160 68 -190 63 -21 69 -42 57 -199 -12 -150 -29 -195 -105
-292 -25 -33 -46 -67 -46 -76 0 -21 41 -60 62 -60 24 0 70 43 113 104 l38 55
26 -19 c70 -53 67 -45 38 -89 -41 -61 -32 -103 25 -116 21 -6 33 -1 54 20 37
37 47 22 54 -84 6 -97 17 -121 59 -121 56 0 63 16 59 128 -3 88 -1 101 12 96
40 -15 162 -43 223 -49 57 -6 71 -5 87 10 24 22 27 77 5 95 -8 7 -53 16 -99
21 -81 8 -235 53 -307 89 -19 10 -70 45 -113 77 l-78 57 6 41 c14 104 17 254
6 293 -14 53 -61 107 -105 122 -19 6 -35 15 -35 19 0 14 50 84 88 124 158 166
477 305 653 284 38 -5 53 -2 73 14 39 31 34 74 -11 98 -29 15 -163 13 -243 -5z
m233 -20 c10 -3 17 -15 17 -29 0 -18 -7 -25 -30 -30 -16 -4 -34 -4 -40 0 -16
10 -155 -13 -248 -41 -202 -60 -420 -214 -495 -348 -30 -55 -27 -67 27 -90 88
-38 99 -73 91 -279 -5 -130 -3 -168 7 -176 139 -113 186 -140 308 -179 120
-38 180 -52 230 -52 42 0 66 -24 54 -54 -9 -22 -89 -20 -189 5 -123 30 -126
31 -141 18 -11 -9 -13 -28 -8 -85 9 -98 1 -126 -34 -122 -26 3 -27 5 -34 85
-7 83 -27 133 -55 133 -7 0 -26 -9 -41 -20 -32 -24 -62 -18 -62 12 0 10 10 37
23 58 27 48 21 62 -48 105 l-47 29 -22 -25 c-11 -15 -38 -49 -60 -76 -29 -39
-44 -50 -65 -49 -44 2 -37 34 23 114 70 92 85 142 93 310 7 151 4 159 -74 194
-58 26 -73 43 -73 86 0 81 136 244 279 337 213 136 477 209 614 169z"/>
<path d="M1940 1966 c-77 -57 -136 -115 -125 -123 6 -4 36 -38 68 -75 72 -84
114 -101 174 -72 51 26 80 82 65 130 -9 29 -118 172 -132 173 -3 0 -25 -14
-50 -33z m159 -145 c13 -44 -9 -88 -53 -106 -50 -21 -75 -10 -143 63 -73 78
-72 81 20 148 l62 46 52 -59 c29 -32 57 -73 62 -92z"/>
</g>
</svg>
