<?xml version="1.0" encoding="iso-8859-1"?>
<!-- Uploaded to: SVG Repo, www.svgrepo.com, Generator: SVG Repo Mixer Tools -->
<svg height="800px" width="800px" version="1.1" id="Layer_1" xmlns="http://www.w3.org/2000/svg" xmlns:xlink="http://www.w3.org/1999/xlink" 
	 viewBox="0 0 511.992 511.992" xml:space="preserve">
<path style="fill:#F6BB42;" d="M221.427,3.125c1.921,1.922,3.117,4.578,3.117,7.516l-0.008,106.575c0,5.875-4.757,10.64-10.64,10.64
	c-5.875,0-10.633-4.766-10.641-10.64l0.008-106.575C203.263,4.766,208.021,0,213.904,0C216.841,0,219.497,1.187,221.427,3.125z"/>
<g>
	<path style="fill:#FFCE54;" d="M10.644,84.201c2.727,0,5.445,1.031,7.523,3.109l75.357,75.356c4.148,4.156,4.156,10.891,0,15.047
		c-4.156,4.156-10.898,4.156-15.046,0L3.121,102.356c-4.156-4.156-4.156-10.89,0-15.046C5.199,85.232,7.918,84.201,10.644,84.201z"
		/>
	<path style="fill:#FFCE54;" d="M341.805,415.347c2.719,0,5.438,1.047,7.516,3.125l75.357,75.356c4.156,4.156,4.156,10.891,0,15.047
		c-4.156,4.156-10.889,4.156-15.045,0l-75.357-75.356c-4.156-4.156-4.156-10.891,0-15.047
		C336.353,416.393,339.088,415.347,341.805,415.347z"/>
</g>
<path style="fill:#F6BB42;" d="M387.258,290.569c1.922-1.922,4.578-3.125,7.516-3.125l106.574,0.016
	c5.875,0,10.641,4.75,10.641,10.641c0,5.875-4.766,10.64-10.641,10.64H394.773c-5.875-0.016-10.625-4.78-10.625-10.655
	C384.148,295.147,385.336,292.491,387.258,290.569z"/>
<g>
	<path style="fill:#FFCE54;" d="M331.166,170.198c-0.016-2.734,1.031-5.453,3.109-7.531l75.357-75.356
		c4.156-4.156,10.889-4.156,15.045,0s4.156,10.89,0,15.046l-75.357,75.357c-4.156,4.156-10.889,4.156-15.045,0
		C332.197,175.635,331.15,172.916,331.166,170.198z"/>
	<path style="fill:#FFCE54;" d="M213.904,436.409c-76.271,0-138.324-62.046-138.324-138.324
		c0-76.263,62.053-138.309,138.324-138.309c76.262,0,138.307,62.045,138.307,138.309
		C352.211,374.363,290.166,436.409,213.904,436.409z"/>
</g>
<path style="fill:#F6BB42;" d="M213.904,149.136c-82.271,0-148.964,66.686-148.964,148.949c0,82.278,66.693,148.964,148.964,148.964
	c82.262,0,148.963-66.686,148.963-148.964C362.867,215.822,296.166,149.136,213.904,149.136z M304.182,388.378
	c-24.125,24.109-56.178,37.391-90.278,37.391c-34.108,0-66.17-13.281-90.287-37.391c-24.116-24.124-37.397-56.186-37.397-90.293
	c0-34.093,13.281-66.155,37.397-90.279c24.117-24.108,56.178-37.39,90.287-37.39c34.1,0,66.153,13.281,90.278,37.39
	c24.125,24.124,37.404,56.186,37.404,90.279C341.586,332.192,328.307,364.254,304.182,388.378z"/>
<path style="fill:#646C77;" d="M281.525,340.38c-60.692,0-109.91-49.217-109.91-109.918c0-13.655,2.492-26.718,7.039-38.764
	c-41.577,15.671-71.154,55.826-71.154,102.888c0,60.701,49.21,109.902,109.919,109.902c47.053,0,87.2-29.562,102.887-71.154
	C308.243,337.88,295.182,340.38,281.525,340.38z"/>
<path style="fill:#434A54;" d="M238.7,383.206c-60.709,0-109.918-49.201-109.918-109.901c0-24.938,8.297-47.921,22.273-66.358
	c-26.46,20.078-43.554,51.858-43.554,87.638c0,60.701,49.21,109.902,109.919,109.902c35.772,0,67.543-17.094,87.622-43.545
	C286.603,374.91,263.621,383.206,238.7,383.206z"/>
</svg>