<?xml version="1.0" encoding="utf-8"?>
<!-- Svg Vector Icons : http://www.onlinewebfonts.com/icon -->
<!DOCTYPE svg PUBLIC "-//W3C//DTD SVG 1.1//EN" "http://www.w3.org/Graphics/SVG/1.1/DTD/svg11.dtd">
<svg version="1.1" xmlns="http://www.w3.org/2000/svg" xmlns:xlink="http://www.w3.org/1999/xlink" x="0px" y="0px" viewBox="0 0 256 256" enable-background="new 0 0 256 256" xml:space="preserve">
<metadata> Svg Vector Icons : http://www.onlinewebfonts.com/icon </metadata>
<g><g><path fill="#000000" d="M143.7,70c-0.9,0-1.9,0.1-2.9,0.5c-5.3,1.6-10.1,7.2-8.7,12.4c1.1,0.5,6.1-1.2,8.8-2c3.8-1.3,8.1-2.7,11.8-2.5C150.8,72.9,147.7,70,143.7,70z"/><path fill="#000000" d="M188.1,157.7c-2.9,0-5.7,0.6-8.1,1.6c-1.7,0.7-3.5,2-5.2,3.7c5.1,1.1,9.7,3.5,12.8,7.3c1.3,1.5,1.1,3.7-0.4,5c-1.5,1.3-3.7,1.1-5-0.4c-2.7-3.2-7-5.1-12-5.4c-1,1.9-1.7,4-2,6.2c-0.7,5.1,0.8,9.3,4.7,12.5c3.2,2.6,6.7,4,10.4,4c8.1,0,14.8-6.2,17.1-12c2.8-7.2,2.9-13,0.2-16.8C198.3,159.7,193.6,157.7,188.1,157.7z"/><path fill="#000000" d="M92.3,79.1c1.2-0.7,1-2.9,0.8-3.8c-0.9-5-5.7-11-11-11.7c-4.2-0.5-8.6,2.5-12.5,8.7c3.1,0.7,6.1,2.3,8.8,3.8C84.4,79.5,88.3,81.3,92.3,79.1z"/><path fill="#000000" d="M128,10C62.8,10,10,62.8,10,128c0,65.2,52.8,118,118,118c65.2,0,118-52.8,118-118C246,62.8,193.2,10,128,10z M207,182.6c-3.2,8.2-12.4,16.5-23.7,16.5c-5.3,0-10.5-2-14.9-5.6c-5.7-4.7-8.3-11.5-7.2-19c0.2-1.4,0.6-2.9,1.1-4.3c-5.6,1.5-10.3,4.9-12.9,9.7c-2.4,4.2-3.9,8.9-5.4,13.4c-3.7,11-7.5,22.4-22.4,24.3c-1.9,0.2-3.7,0.4-5.4,0.4c-9.8,0-15.4-3.8-18.5-7.2c-5.5-6.2-7-15.9-4.2-27.3c0.4-1.6,1.1-3.8,2-6.3c3.4-10.1,9-26.9,1.2-35.4c-11-2.2-21-5.2-26.4-7.3c-7.7-2.9-13-8-15.8-14.9c-6-14.8,1.1-34.2,5.8-44.5l0,0c0-0.1,0.1-0.2,0.1-0.2c7.6-16.3,16.4-18.8,22.6-18c8.8,1.1,15.7,9.9,17.1,17.4c0.9,5.1-0.7,9.3-4.4,11.3c-7.7,4.1-14.8,0.2-20.6-2.9c-4-2.2-6.8-3.5-9-3.3c-3.6,8.1-10,25.5-5.1,37.6c2.1,5.1,5.9,8.7,11.8,11c16,6.2,51.9,13.9,63.7,6.8c11.3-6.9,18.6-31,17.8-47.4c-0.5-0.3-0.8-0.8-1.1-1.3c-0.6-1.3-7.5,1-10.1,1.8c-5.5,1.8-10.7,3.5-14.5,1.5c-1.7-0.9-2.8-2.4-3.3-4.3c-2.5-9.2,5.1-18.5,13.5-21c6.9-2.1,16.6,0,20.8,12.8c6,18.2-2.6,53.9-19.4,64.1c-4.6,2.8-11.3,3.9-18.9,3.9c-4.9,0-10.2-0.5-15.4-1.2c4.6,11.4-0.5,26.4-3.8,36.1c-0.8,2.3-1.4,4.3-1.8,5.8c-2.3,9.1-1.3,16.5,2.6,20.9c3.5,4,9.7,5.5,17.7,4.6c10-1.3,12.7-7.9,16.5-19.5c1.6-4.8,3.3-9.8,6-14.7c4.4-7.9,12.9-13.2,22.6-14.2c0.2,0,0.3,0,0.5,0c2.9-4.3,6.8-7.8,11.1-9.5c3.3-1.4,7.1-2.1,10.9-2.1c7.9,0,14.6,3.1,18.3,8.5C209.3,163.3,211.6,170.7,207,182.6z"/></g></g>
</svg>