<?xml version="1.0" encoding="iso-8859-1"?>
<!-- Uploaded to: SVG Repo, www.svgrepo.com, Generator: SVG Repo Mixer Tools -->
<svg height="800px" width="800px" version="1.1" id="Layer_1" xmlns="http://www.w3.org/2000/svg" xmlns:xlink="http://www.w3.org/1999/xlink" 
	 viewBox="0 0 512 512" xml:space="preserve">
<path style="fill:#FFDFB3;" d="M378.351,200.563H100.281c-9.211,0-16.684-7.473-16.684-16.684
	c0-64.401,52.388-116.789,116.789-116.789h111.228c24.103,0,50.052-15.772,50.052-50.401c0-6.843,4.182-13.001,10.547-15.511
	c6.343-2.53,13.621-0.902,18.303,4.095c50.791,54.169,50.791,135.852,0,190.021C387.366,198.651,382.955,200.563,378.351,200.563z"
	/>
<path style="fill:#FFCC99;" d="M372.213,1.178c-6.366,2.509-10.547,8.668-10.547,15.511c0,34.629-25.949,50.401-50.052,50.401H256
	v133.473h122.35c4.606,0,9.015-1.912,12.166-5.268c50.791-54.169,50.791-135.852,0-190.021
	C385.834,0.277,378.556-1.352,372.213,1.178z"/>
<path style="fill:#D7EBFF;" d="M461.771,278.422H50.229c-9.211,0-16.684-7.473-16.684-16.684v-44.491
	c0-27.6,22.452-50.052,50.052-50.052h344.806c27.6,0,50.052,22.452,50.052,50.052v44.491
	C478.455,270.949,470.982,278.422,461.771,278.422z"/>
<path style="fill:#C4E2FF;" d="M428.403,167.194H256v111.228h205.771c9.211,0,16.684-7.473,16.684-16.684v-44.491
	C478.455,189.647,456.003,167.194,428.403,167.194z"/>
<path style="fill:#36D9D9;" d="M428.403,512H83.597c-46,0-83.421-37.42-83.421-83.421V261.738c0-9.211,7.473-16.684,16.684-16.684
	H495.14c9.211,0,16.684,7.473,16.684,16.684v166.842C511.824,474.58,474.403,512,428.403,512z"/>
<path style="fill:#43BFBF;" d="M495.14,245.054H256V512h172.403c46,0,83.421-37.42,83.421-83.421V261.738
	C511.824,252.527,504.35,245.054,495.14,245.054z"/>
<path style="fill:#D7EBFF;" d="M378.351,445.263H133.65c-27.6,0-50.052-22.452-50.052-50.052v-33.368
	c0-27.6,22.452-50.052,50.052-50.052h244.701c27.6,0,50.052,22.452,50.052,50.052v33.368
	C428.403,422.811,405.951,445.263,378.351,445.263z"/>
<path style="fill:#C4E2FF;" d="M378.351,311.79H256v133.473h122.35c27.6,0,50.052-22.452,50.052-50.052v-33.368
	C428.403,334.243,405.951,311.79,378.351,311.79z"/>
</svg>