<?xml version="1.0" encoding="iso-8859-1"?>
<!-- Uploaded to: SVG Repo, www.svgrepo.com, Generator: SVG Repo Mixer Tools -->
<svg height="50px" width="50px" version="1.1" id="Layer_1" xmlns="http://www.w3.org/2000/svg" xmlns:xlink="http://www.w3.org/1999/xlink" 
	 viewBox="0 0 511.998 511.998" xml:space="preserve">
<path style="fill:#FFD155;" d="M96.666,388.446V220.687c0-81.506,66.016-148.916,148.916-148.916h63.344
	c58.464,0,106.026,47.562,106.026,106.026c0,58.824-47.964,106.012-106.026,106.012c-28.247,0-54.982,10.895-75.277,30.678
	c-27.509,26.815-32.065,54.201-32.964,87.963h-1.573C182.929,460.48,96.666,448.884,96.666,388.446z"/>
<path style="fill:#FFBE00;" d="M308.927,71.771h-53.124V297.83c16.056-9.133,34.245-14.023,53.124-14.023
	c58.051,0,106.026-47.176,106.026-106.012C414.954,119.333,367.39,71.771,308.927,71.771z"/>
<path style="fill:#FFE49C;" d="M89.665,331.571c0-114.118-7.779-155.086,33.507-207.351
	c20.582-26.057,107.817,24.133,107.817,108.037C230.989,343.024,89.665,381.223,89.665,331.571z"/>
<path style="fill:#FFDA79;" d="M199.553,318.436c-35.655-79.198,22.265-169.722,109.76-169.722
	c65.209,0,112.469,53.684,102.749,75.307c-18.239,40.573-58.721,66.789-103.134,66.789c-28.322,0-55.54,12.075-74.677,33.132
	C224.082,335.129,205.762,332.225,199.553,318.436z"/>
<path style="fill:#FFC72D;" d="M255.804,161.228V306.04c15.84-9.83,34.23-15.23,53.124-15.23c44.413,0,84.896-26.217,103.134-66.789
	C424.96,195.329,341.894,118.469,255.804,161.228z"/>
<path style="fill:#FFEDBE;" d="M451.658,72.892C391.987-9.756,310.727,0.395,245.583,0.395
	c-121.897,0-220.291,98.783-220.291,220.291v167.761c0,68.132,55.456,123.552,123.552,123.552
	c71.62,0,123.554-59.912,123.554-120.27c0-20.036,16.133-36.546,36.529-36.546C449.54,355.183,540.13,195.438,451.658,72.892z
	 M308.927,269.805c-66.055,0-120.124,52.864-121.877,118.641h-0.032c0,50.44-76.349,50.464-76.349,0V220.687
	c0-74.371,60.514-134.913,134.913-134.913h63.344c50.744,0,92.022,41.28,92.022,92.022
	C400.95,228.379,359.828,269.805,308.927,269.805z"/>
<path style="fill:#FFDA79;" d="M451.658,72.892C392.749-8.702,311.782,0.395,255.804,0.395v85.379h53.124
	c50.744,0,92.022,41.28,92.022,92.022c0,50.597-41.14,92.007-92.022,92.007c-19.028,0-37.048,4.407-53.124,12.225v168.5
	c10.641-18.018,16.595-38.384,16.595-58.8c0-20.036,16.133-36.546,36.529-36.546C449.54,355.183,540.13,195.438,451.658,72.892z"/>
</svg>