<?xml version="1.0" encoding="iso-8859-1"?>
<!-- Uploaded to: SVG Repo, www.svgrepo.com, Generator: SVG Repo Mixer Tools -->
<svg height="40px" width="40px" version="1.1" id="Layer_1" xmlns="http://www.w3.org/2000/svg" xmlns:xlink="http://www.w3.org/1999/xlink" 
	 viewBox="0 0 512 512" xml:space="preserve">
<path style="fill:#FF5E5B;" d="M168.489,451.654H36.285C16.277,451.654,0,435.376,0,415.368v-80.416
	c0-103.012,83.804-186.816,186.816-186.816c9.918,0,17.958,8.041,17.958,17.958v249.274
	C204.774,435.376,188.497,451.654,168.489,451.654z"/>
<path style="fill:#FF423D;" d="M475.715,451.654H343.511c-20.008,0-36.285-16.277-36.285-36.285V166.094
	c0-9.918,8.041-17.958,17.958-17.958C428.195,148.136,512,231.942,512,334.952v80.416C512,435.376,495.723,451.654,475.715,451.654z
	"/>
<path style="fill:#FFC72D;" d="M424.039,336.852l-22.193-16.789l22.193-16.789c18.958-14.342-2.754-42.956-21.669-28.645
	l-30.292,22.915l-98.121-74.227V78.304c0-9.918-8.041-17.958-17.958-17.958s-17.958,8.041-17.958,17.958v145.015l-98.121,74.227
	l-30.291-22.915c-18.92-14.314-40.618,14.309-21.669,28.645l22.193,16.789L87.96,336.853c-18.959,14.343,2.752,42.954,21.669,28.645
	L256,254.772l146.371,110.726C421.341,379.848,442.903,351.123,424.039,336.852z"/>
<path style="fill:#FFBE00;" d="M424.039,336.852l-22.193-16.789l22.193-16.789c18.958-14.342-2.754-42.956-21.669-28.645
	l-30.292,22.915l-98.121-74.227V78.304c0-9.918-8.041-17.958-17.958-17.958V254.77L402.37,365.497
	C421.341,379.848,442.903,351.123,424.039,336.852z"/>
</svg>