<?xml version="1.0" encoding="iso-8859-1"?>
<!-- Uploaded to: SVG Repo, www.svgrepo.com, Generator: SVG Repo Mixer Tools -->
<svg height="800px" width="800px" version="1.1" id="Layer_1" xmlns="http://www.w3.org/2000/svg" xmlns:xlink="http://www.w3.org/1999/xlink" 
	 viewBox="0 0 512 512" xml:space="preserve">
<path style="fill:#FF5E5B;" d="M0,243.699v101.885c0,60.776,49.445,110.221,110.22,110.221c60.776,0,110.22-49.445,110.22-110.221
	V243.699L0,243.699L0,243.699z"/>
<path style="fill:#FFC72D;" d="M220.441,166.417c0-60.776-49.444-110.221-110.22-110.221C49.445,56.196,0,105.641,0,166.417V256
	h220.441V166.417z"/>
<path style="fill:#FF423D;" d="M110.22,243.699v212.106l0,0c60.776,0,110.22-49.445,110.22-110.221V243.699L110.22,243.699
	L110.22,243.699z"/>
<path style="fill:#FFBE00;" d="M110.22,56.196L110.22,56.196V256h110.22v-89.583C220.441,105.641,170.996,56.196,110.22,56.196z"/>
<path style="fill:#FF5E5B;" d="M291.559,268.301V166.417c0-60.776,49.445-110.221,110.221-110.221S512,105.641,512,166.417v101.885
	H291.559z"/>
<path style="fill:#FFC72D;" d="M512,345.583c0,60.776-49.444,110.221-110.22,110.221s-110.221-49.445-110.221-110.221V256H512
	V345.583z"/>
<path style="fill:#FF423D;" d="M401.779,268.301V56.196l0,0c60.776,0,110.22,49.445,110.22,110.221v101.885H401.779z"/>
<path style="fill:#FFBE00;" d="M401.78,455.804L401.78,455.804V256H512v89.583C512,406.359,462.555,455.804,401.78,455.804z"/>
</svg>