<?xml version="1.0" encoding="iso-8859-1"?>
<!-- Uploaded to: SVG Repo, www.svgrepo.com, Generator: SVG Repo Mixer Tools -->
<svg height="800px" width="800px" version="1.1" id="Layer_1" xmlns="http://www.w3.org/2000/svg" xmlns:xlink="http://www.w3.org/1999/xlink" 
	 viewBox="0 0 512 512" xml:space="preserve">
<path style="fill:#80D0E1;" d="M400.545,258.542h-289.09c-10.877,0-19.696-8.818-19.696-19.696v-39.611
	c0-36.483,29.682-66.166,66.166-66.166c10.346,0,18.762-8.417,18.762-18.762V79.815c0-10.877,8.818-19.696,19.696-19.696h119.235
	c10.877,0,19.696,8.818,19.696,19.696v34.493c0,10.346,8.417,18.762,18.762,18.762c36.483,0,66.166,29.683,66.166,66.166v39.611
	C420.24,249.725,411.422,258.542,400.545,258.542z"/>
<g>
	<path style="fill:#51B3DA;" d="M354.074,133.07c-10.346,0-18.762-8.417-18.762-18.762V79.815c0-10.877-8.819-19.696-19.696-19.696
		h-59.617v198.422h144.545c10.877,0,19.696-8.818,19.696-19.696v-39.611C420.24,162.752,390.557,133.07,354.074,133.07z"/>
	<path style="fill:#51B3DA;" d="M334.286,99.511H177.711c-10.877,0-19.696-8.818-19.696-19.696v-60.12
		C158.015,8.818,166.834,0,177.711,0h156.575c10.877,0,19.696,8.818,19.696,19.696v60.12
		C353.982,90.693,345.164,99.511,334.286,99.511z"/>
</g>
<path style="fill:#FF5E5B;" d="M400.545,512h-289.09c-10.877,0-19.696-8.818-19.696-19.696V219.15H420.24v273.154
	C420.24,503.182,411.422,512,400.545,512z"/>
<path style="fill:#FF423D;" d="M255.999,219.15V512h144.545c10.877,0,19.696-8.818,19.696-19.696V219.15H255.999z"/>
<path style="fill:#FFEDBE;" d="M305.205,345.879h-29.511v-29.51c0-10.877-8.818-19.696-19.696-19.696
	c-10.877,0-19.696,8.818-19.696,19.696v29.51h-29.51c-10.877,0-19.696,8.818-19.696,19.696s8.818,19.696,19.696,19.696h29.511
	v29.511c0,10.877,8.818,19.696,19.696,19.696c10.877,0,19.696-8.819,19.696-19.696V385.27h29.511
	c10.877,0,19.696-8.819,19.696-19.696C324.901,354.697,316.083,345.879,305.205,345.879z"/>
<path style="fill:#39A3DB;" d="M334.286,0h-78.287v99.511h78.287c10.877,0,19.696-8.818,19.696-19.696v-60.12
	C353.982,8.818,345.164,0,334.286,0z"/>
<path style="fill:#FFE49C;" d="M305.205,345.879h-29.511v-29.51c0-10.877-8.818-19.696-19.696-19.696v137.804
	c10.877,0,19.696-8.819,19.696-19.696V385.27h29.511c10.877,0,19.696-8.819,19.696-19.696S316.083,345.879,305.205,345.879z"/>
</svg>