<?xml version="1.0" standalone="no"?>
<!DOCTYPE svg PUBLIC "-//W3C//DTD SVG 20010904//EN"
 "http://www.w3.org/TR/2001/REC-SVG-20010904/DTD/svg10.dtd">
<svg version="1.0" xmlns="http://www.w3.org/2000/svg"
 width="300.000000pt" height="543.000000pt" viewBox="0 0 300.000000 543.000000"
 preserveAspectRatio="xMidYMid meet">
<metadata>
Created by potrace 1.10, written by Peter Selinger 2001-2011
</metadata>
<g transform="translate(0.000000,543.000000) scale(0.100000,-0.100000)"
fill="#000000" stroke="none">
<path d="M1315 5389 c-54 -60 -75 -116 -87 -232 -18 -165 -15 -234 11 -265 43
-53 61 -104 61 -174 0 -66 0 -67 -42 -103 -66 -56 -118 -82 -181 -89 -76 -8
-124 -34 -179 -95 -55 -61 -84 -120 -93 -186 -12 -97 -38 -220 -50 -245 -7
-14 -27 -65 -44 -114 -22 -63 -45 -105 -75 -140 -49 -58 -92 -123 -161 -246
-57 -101 -106 -169 -198 -276 -55 -64 -83 -86 -142 -116 -86 -44 -135 -96
-135 -145 0 -18 4 -33 8 -33 5 0 17 -6 27 -14 19 -13 18 -15 -8 -55 -19 -28
-27 -54 -27 -82 l0 -42 23 40 c12 22 47 79 77 127 l54 88 18 -22 c10 -13 21
-20 25 -16 8 8 -37 56 -53 56 -7 0 -29 -13 -47 -30 -32 -28 -77 -41 -77 -22 0
24 91 100 139 118 44 15 67 35 140 114 92 101 175 219 236 335 47 88 88 148
141 205 29 31 47 63 58 104 10 32 28 83 42 115 28 62 51 159 64 267 9 82 35
138 92 200 43 47 108 74 179 74 28 0 55 12 111 49 116 78 120 85 115 177 -6
103 -26 174 -48 174 -10 0 -22 13 -28 31 -14 40 -14 139 -1 139 6 0 10 32 10
76 0 41 5 94 11 117 26 103 106 167 209 167 140 -1 218 -93 228 -272 3 -48 9
-88 13 -88 12 0 11 -77 -2 -124 -6 -21 -18 -40 -28 -43 -33 -8 -66 -216 -42
-262 6 -11 48 -44 94 -74 73 -48 90 -55 151 -61 82 -8 108 -20 162 -78 57 -59
82 -113 94 -205 18 -135 26 -176 50 -233 12 -30 33 -85 46 -123 15 -45 39 -86
72 -125 61 -72 101 -130 140 -208 41 -81 141 -228 194 -285 24 -25 60 -67 80
-92 27 -32 58 -54 107 -77 45 -21 80 -45 100 -71 17 -21 31 -40 31 -43 0 -15
-42 -3 -68 19 -39 33 -73 45 -110 39 -21 -3 -47 3 -81 21 l-50 25 8 -22 c4
-13 17 -27 27 -33 11 -5 36 -20 55 -32 20 -13 39 -23 43 -23 4 0 6 10 4 23 -5
34 35 36 51 1 6 -15 39 -68 71 -119 33 -50 60 -99 60 -108 0 -37 -31 -13 -85
63 -31 44 -61 80 -66 80 -12 0 -13 1 20 -71 43 -98 65 -169 53 -181 -13 -13
-39 15 -51 55 -14 49 -72 167 -82 167 -13 0 -13 1 27 -115 20 -58 34 -108 31
-112 -16 -16 -37 14 -72 104 -56 144 -72 153 -55 33 18 -125 -21 -113 -41 13
-6 34 -26 93 -45 132 -19 38 -38 93 -43 121 -4 28 -18 66 -31 85 -13 19 -101
113 -195 209 -93 96 -175 186 -181 200 -43 97 -59 123 -116 192 -35 42 -81
106 -102 142 -22 37 -41 64 -43 62 -10 -9 -53 -221 -53 -257 0 -21 7 -71 16
-111 8 -40 17 -102 19 -138 3 -36 16 -103 31 -150 19 -62 29 -123 35 -225 6
-78 21 -189 35 -250 51 -228 57 -274 61 -510 2 -144 9 -256 18 -300 8 -38 17
-113 21 -165 6 -72 14 -107 34 -150 15 -30 38 -93 51 -140 20 -75 23 -104 21
-250 -1 -91 -7 -271 -13 -401 -11 -233 -11 -237 10 -285 16 -36 20 -59 16 -87
-9 -50 9 -124 54 -222 43 -93 61 -144 61 -171 0 -18 -49 -73 -59 -65 -2 1 -7
-3 -12 -11 -5 -7 -14 -13 -21 -14 -7 0 -21 -5 -32 -9 -11 -5 -26 -3 -37 4 -12
7 -19 7 -19 1 0 -15 -43 -12 -68 6 -14 10 -22 25 -22 45 0 16 -4 29 -8 29 -26
0 -32 65 -37 353 -3 166 -7 329 -11 362 -7 72 -62 342 -73 364 -29 54 -43 129
-51 261 -9 159 -29 263 -68 355 -13 33 -39 123 -57 201 -18 77 -44 167 -59
200 -14 32 -49 131 -77 218 -40 125 -54 185 -63 278 -11 109 -11 120 5 128 9
5 26 24 38 42 11 18 28 44 38 57 17 24 17 24 -3 13 -24 -13 -50 -42 -38 -42 4
0 -7 -16 -26 -35 -19 -19 -44 -35 -56 -35 -14 0 -44 23 -80 60 -57 58 -74 70
-74 51 0 -13 81 -97 99 -102 10 -4 11 -10 4 -24 -6 -11 -14 -65 -17 -120 -7
-85 -17 -128 -73 -294 -35 -107 -71 -208 -79 -224 -9 -16 -30 -92 -48 -170
-19 -78 -45 -170 -59 -203 -50 -118 -66 -196 -66 -322 0 -125 -10 -189 -40
-262 -58 -136 -119 -469 -102 -555 6 -29 8 -116 4 -205 -3 -85 -6 -189 -7
-230 -1 -83 -9 -115 -31 -124 -9 -3 -12 -12 -9 -21 14 -35 -71 -87 -91 -55 -4
6 -13 5 -24 -2 -11 -7 -26 -8 -37 -3 -11 5 -23 7 -27 6 -4 0 -10 6 -13 14 -4
8 -11 15 -16 15 -6 0 -21 10 -34 23 -25 23 -34 90 -14 102 5 3 10 13 10 21 0
8 18 52 39 98 48 100 65 164 58 213 -4 23 1 56 13 92 15 48 17 69 9 141 -12
117 -12 674 0 735 16 83 48 189 69 231 12 24 22 72 26 124 4 47 14 119 22 160
8 46 15 163 18 305 3 240 12 309 62 510 14 55 31 163 39 240 7 77 24 183 38
235 26 97 47 240 55 364 3 64 -26 234 -47 274 -5 9 -20 -9 -46 -52 -21 -36
-67 -102 -102 -146 -35 -43 -80 -114 -99 -157 -32 -69 -51 -93 -194 -237 -196
-198 -225 -235 -234 -299 -3 -27 -22 -79 -41 -116 -21 -39 -40 -94 -46 -131
-11 -68 -24 -100 -41 -100 -10 0 -6 70 8 143 12 60 -16 21 -56 -79 -39 -96
-60 -127 -77 -111 -3 4 11 54 31 113 20 58 34 109 31 112 -3 3 -7 3 -9 1 -10
-11 -75 -148 -85 -181 -13 -39 -38 -57 -48 -33 -6 17 26 112 64 187 25 52 27
58 15 58 -5 0 -32 -34 -61 -75 -50 -72 -81 -101 -95 -88 -3 3 -6 -3 -6 -15 0
-17 6 -22 25 -22 20 0 25 -5 25 -23 0 -35 33 -61 69 -54 17 4 33 2 36 -3 12
-20 45 -9 71 24 24 30 32 33 60 29 29 -5 35 -1 52 26 11 18 23 55 26 83 4 28
23 81 42 119 19 38 39 93 45 121 6 29 21 67 32 83 12 17 97 108 190 203 144
147 173 183 199 240 29 63 183 282 199 282 15 0 31 -106 27 -175 -8 -124 -29
-268 -55 -365 -13 -52 -31 -158 -38 -236 -8 -77 -23 -178 -35 -224 -50 -198
-62 -288 -70 -550 -9 -269 -35 -502 -62 -555 -9 -16 -29 -73 -44 -125 l-29
-95 -2 -445 c-3 -562 -7 -606 -63 -725 -83 -177 -87 -213 -29 -279 l41 -46
117 0 118 0 31 72 c30 71 31 79 40 299 7 147 7 244 0 280 -18 97 34 377 107
578 23 64 28 95 32 215 5 165 14 212 59 323 18 45 48 144 65 220 17 76 38 152
47 168 8 17 44 116 79 220 51 151 66 210 73 289 14 147 25 147 40 2 10 -98 74
-315 140 -481 16 -38 41 -122 55 -185 15 -63 40 -151 56 -195 46 -124 58 -188
69 -353 8 -116 16 -171 34 -225 76 -227 94 -359 101 -752 6 -305 7 -333 27
-375 47 -104 32 -95 166 -98 l119 -3 37 41 c45 50 47 97 10 185 -73 168 -77
182 -85 270 -4 49 -15 114 -23 142 -11 41 -13 71 -6 137 5 47 12 212 15 368 7
267 6 288 -14 371 -11 49 -35 121 -52 160 -25 56 -33 92 -40 177 -5 59 -15
135 -24 171 -11 46 -15 122 -15 275 0 218 -8 290 -60 509 -11 50 -25 155 -30
235 -7 109 -15 165 -35 225 -14 44 -28 107 -31 140 -3 33 -12 96 -20 140 -17
98 -18 158 -2 224 12 53 26 63 44 33 6 -10 39 -52 72 -93 34 -42 77 -111 97
-154 32 -70 51 -94 198 -244 90 -91 173 -181 186 -199 13 -18 29 -60 37 -93 8
-32 27 -86 44 -118 16 -33 36 -92 44 -132 19 -86 38 -113 79 -105 24 5 34 0
63 -30 25 -27 38 -34 51 -29 10 5 35 7 55 6 41 -2 68 25 68 66 0 18 6 23 25
23 24 0 25 3 25 60 0 47 -5 67 -25 96 -31 45 -31 57 -2 69 13 6 23 21 25 38 5
44 -47 100 -138 148 -43 22 -86 52 -95 65 -9 13 -42 54 -74 89 -67 74 -128
163 -191 280 -47 86 -93 155 -152 222 -20 23 -44 66 -53 95 -10 29 -28 79 -42
111 -25 62 -63 228 -63 281 0 39 -39 124 -82 177 -47 58 -104 88 -196 103 -64
10 -89 20 -140 55 -34 23 -67 51 -73 63 -6 12 -9 49 -7 88 3 56 10 77 40 127
43 69 48 112 28 268 -15 125 -42 196 -93 252 l-40 43 -137 0 -138 0 -37 -41z"/>
<path d="M1392 5104 c-12 -8 -30 -16 -40 -17 -10 0 -19 -9 -19 -19 -2 -21 22
-24 34 -4 4 7 18 18 30 25 19 9 28 8 48 -5 24 -16 25 -15 25 4 0 33 -41 42
-78 16z"/>
<path d="M1520 5110 c-16 -10 -8 -13 27 -10 15 1 23 -5 25 -22 4 -20 5 -21 12
-5 16 34 -29 60 -64 37z"/>
<path d="M1447 4963 c-14 -13 -6 -24 13 -18 11 4 20 2 20 -4 0 -6 5 -11 10
-11 16 0 11 27 -6 34 -20 8 -29 8 -37 -1z"/>
<path d="M1320 4953 c0 -6 9 -21 20 -34 15 -18 19 -20 20 -8 0 9 -9 24 -20 34
-11 10 -20 13 -20 8z"/>
<path d="M1430 4881 c-43 -12 -8 -17 75 -12 72 5 76 7 40 13 -47 9 -80 9 -115
-1z"/>
<path d="M1446 4824 c-5 -12 -2 -15 10 -10 8 3 29 6 45 6 16 0 29 5 29 10 0
17 -77 12 -84 -6z"/>
<path d="M1357 4766 c11 -18 98 -84 115 -87 45 -6 51 4 13 21 l-40 19 43 0
c59 1 44 21 -16 21 -29 0 -59 8 -80 20 -38 24 -46 25 -35 6z"/>
<path d="M991 4249 c-13 -10 -19 -19 -13 -19 5 0 12 -9 15 -20 3 -11 10 -20
15 -20 13 0 24 48 15 65 -7 11 -12 10 -32 -6z"/>
<path d="M1964 4235 c-10 -26 2 -39 39 -41 20 0 37 1 37 3 0 7 -55 52 -63 53
-4 0 -10 -7 -13 -15z"/>
<path d="M1030 4203 c0 -22 57 -97 90 -118 34 -22 51 -25 124 -25 47 0 87 4
90 8 3 5 -21 8 -53 8 -43 -1 -64 4 -78 16 -12 11 -23 14 -29 8 -14 -14 -70 23
-101 69 -26 37 -43 51 -43 34z"/>
<path d="M2151 266 c-2 -41 51 -210 60 -194 4 6 1 25 -6 42 -7 17 -22 63 -33
101 -12 39 -21 62 -21 51z"/>
<path d="M2227 143 c17 -62 41 -101 29 -48 -17 75 -27 105 -36 105 -5 0 -1
-26 7 -57z"/>
<path d="M833 160 c-8 -20 -9 -39 -3 -49 7 -13 10 -11 15 11 4 14 5 36 3 48
-3 20 -4 18 -15 -10z"/>
<path d="M2100 165 c0 -8 13 -41 30 -71 22 -42 31 -52 36 -40 4 11 -1 24 -14
36 -11 11 -23 33 -27 49 -7 33 -25 52 -25 26z"/>
<path d="M731 130 c1 -42 1 -43 10 -18 7 18 7 33 0 45 -8 14 -10 9 -10 -27z"/>
<path d="M778 144 c-5 -4 -8 -23 -8 -43 0 -25 3 -32 11 -24 6 6 9 25 7 43 -2
17 -6 28 -10 24z"/>
</g>
</svg>
