<?xml version="1.0" encoding="iso-8859-1"?>
<!-- Uploaded to: SVG Repo, www.svgrepo.com, Generator: SVG Repo Mixer Tools -->
<svg height="800px" width="800px" version="1.1" id="Layer_1" xmlns="http://www.w3.org/2000/svg" xmlns:xlink="http://www.w3.org/1999/xlink" 
	 viewBox="0 0 512 512" xml:space="preserve">
<path style="fill:#39A3DB;" d="M138.989,505.978L6.022,373.011c-8.029-8.029-8.029-21.045,0-29.074l47.9-47.9
	c8.029-8.029,21.045-8.029,29.074,0l132.967,132.967c8.029,8.029,8.029,21.045,0,29.074l-47.9,47.9
	C160.035,514.006,147.017,514.006,138.989,505.978z"/>
<path style="fill:#3797D3;" d="M215.962,429.004l-66.483-66.483l-76.974,76.974l66.483,66.483c8.029,8.029,21.045,8.029,29.074,0
	l47.9-47.9C223.991,450.049,223.991,437.033,215.962,429.004z"/>
<path style="fill:#C7E9F4;" d="M186.891,458.074L53.927,325.109c-8.36-8.36-7.953-22.039,0.865-29.889L208.69,158.163
	c8.134-7.245,20.508-6.887,28.209,0.815l116.123,116.123c7.703,7.703,8.06,20.075,0.815,28.209L216.781,457.209
	C208.919,466.039,195.239,466.423,186.891,458.074z"/>
<path style="fill:#80D0E1;" d="M216.781,457.21l137.057-153.898c7.245-8.134,6.887-20.508-0.815-28.209l-58.061-58.061
	l-174.553,174.55l66.482,66.482C195.252,466.435,208.93,466.028,216.781,457.21z"/>
<path style="fill:#C7E9F4;" d="M359.299,264.478L247.522,152.702c-9.758-9.758-7.308-26.201,4.879-32.685
	c93.014-49.499,100.468-58.91,114.782-44.597l69.397,69.397c14.191,14.191,5.399,20.835-44.597,114.782
	C385.501,271.781,369.06,274.239,359.299,264.478z"/>
<path style="fill:#80D0E1;" d="M391.984,259.599c49.499-93.012,58.91-100.468,44.597-114.782l-34.699-34.699l-98.471,98.471
	l55.888,55.888C369.057,274.237,385.499,271.785,391.984,259.599z"/>
<path style="fill:#FF5E5B;" d="M240.982,313.427l-6.668-6.668l6.668-6.668c8.029-8.029,8.029-21.045,0-29.074
	c-8.029-8.029-21.045-8.029-29.074,0l-6.668,6.668l-6.668-6.668c-8.029-8.029-21.045-8.029-29.074,0
	c-8.029,8.029-8.029,21.045,0,29.074l6.668,6.668l-6.668,6.668c-8.029,8.029-8.029,21.045,0,29.074s21.045,8.029,29.074,0
	l6.668-6.668l6.668,6.668c8.029,8.029,21.045,8.029,29.074,0S249.011,321.455,240.982,313.427z"/>
<path style="fill:#39A3DB;" d="M323.947,304.175L207.824,188.053c-8.359-8.359-7.955-22.039,0.863-29.889l39.696-35.354
	c8.134-7.245,20.508-6.887,28.21,0.815l111.781,111.781c7.703,7.701,8.06,20.076,0.815,28.21l-35.354,39.696
	C345.977,312.14,332.296,312.525,323.947,304.175z"/>
<path style="fill:#3797D3;" d="M353.836,303.312l35.354-39.696c7.245-8.134,6.887-20.508-0.815-28.21l-55.89-55.89l-66.599,66.599
	l58.061,58.061C332.306,312.534,345.985,312.13,353.836,303.312z"/>
<path style="fill:#39A3DB;" d="M407.506,173.891l-69.397-69.397c-8.029-8.029-8.029-21.045,0-29.074l69.397-69.397
	c8.029-8.029,21.045-8.029,29.074,0l69.397,69.397c8.029,8.029,8.029,21.045,0,29.074l-69.397,69.397
	C428.552,181.919,415.535,181.919,407.506,173.891z"/>
<path style="fill:#FF423D;" d="M240.982,313.427l-6.668-6.668l6.668-6.668c8.029-8.029,8.029-21.045,0-29.074l-71.483,71.483
	c8.029,8.029,21.045,8.029,29.074,0l6.668-6.668l6.668,6.668c8.029,8.029,21.045,8.029,29.074,0S249.011,321.455,240.982,313.427z"
	/>
<path style="fill:#3797D3;" d="M505.978,75.418L471.28,40.719l-98.472,98.472l34.699,34.699c8.029,8.029,21.045,8.029,29.074,0
	l69.397-69.397C514.007,96.465,514.007,83.447,505.978,75.418z"/>
</svg>