<?xml version="1.0" encoding="utf-8"?>

<!-- Uploaded to: SVG Repo, www.svgrepo.com, Generator: SVG Repo Mixer Tools -->
<svg width="50px" height="50px" viewBox="0 0 24 24" xmlns="http://www.w3.org/2000/svg">

<defs>

<style>.cls-1{fill:none;stroke:#020202;stroke-miterlimit:10;stroke-width:1.91px;}</style>

</defs>

<g id="lungs">

<path class="cls-1" d="M8.12,21.37,6,22.24a3,3,0,0,1-1.19.24H4.66A3.16,3.16,0,0,1,1.5,19.32v-.58a32,32,0,0,1,2-11.25h0A3.39,3.39,0,0,1,6.71,5.3h0a3.38,3.38,0,0,1,3.38,3.38v9.76A3.17,3.17,0,0,1,8.12,21.37Z"/>

<path class="cls-1" d="M15.91,21.36l2.27.9a3.32,3.32,0,0,0,1.16.22h0a3.16,3.16,0,0,0,3.16-3.16v-.58a32,32,0,0,0-2-11.25h0A3.39,3.39,0,0,0,17.29,5.3h0a3.38,3.38,0,0,0-3.38,3.38v9.74A3.16,3.16,0,0,0,15.91,21.36Z"/>

<path class="cls-1" d="M7.23,11h0A4.77,4.77,0,0,0,12,6.25V.52"/>

<path class="cls-1" d="M16.77,11h0A4.77,4.77,0,0,1,12,6.25V.52"/>

</g>

</svg>