<?xml version="1.0" ?><!DOCTYPE svg  PUBLIC '-//W3C//DTD SVG 1.1//EN'  'http://www.w3.org/Graphics/SVG/1.1/DTD/svg11.dtd'><!-- Uploaded to: SVG Repo, www.svgrepo.com, Generator: SVG Repo Mixer Tools -->
<svg fill="#000000" width="50px" height="50px" viewBox="0 0 32 32" style="fill-rule:evenodd;clip-rule:evenodd;stroke-linejoin:round;stroke-miterlimit:2;" version="1.1" xml:space="preserve" xmlns="http://www.w3.org/2000/svg" xmlns:serif="http://www.serif.com/" xmlns:xlink="http://www.w3.org/1999/xlink"><path d="M22.043,8.549l-0.595,-0.595c-1.172,-1.172 -3.071,-1.172 -4.243,-0l-9.922,9.922l-1.574,-1.573c-0.391,-0.39 -1.024,-0.39 -1.414,0.001c-0.39,0.39 -0.39,1.024 0,1.414l4.289,4.285l-1.769,1.773l-1.49,-1.489c-0.39,-0.39 -1.024,-0.39 -1.414,0.001c-0.39,0.39 -0.39,1.024 0.001,1.414l4.368,4.366c0.391,0.39 1.025,0.39 1.415,-0.001c0.39,-0.39 0.39,-1.024 -0.001,-1.414l-1.464,-1.464l1.768,-1.772l4.295,4.291c0.391,0.39 1.024,0.39 1.414,-0c0.39,-0.391 0.39,-1.024 -0,-1.415l-1.35,-1.349l9.919,-9.919c1.172,-1.172 1.172,-3.071 0,-4.243l-0.819,-0.819l4.251,-4.256c0.39,-0.391 0.389,-1.025 -0.001,-1.415c-0.391,-0.39 -1.025,-0.389 -1.415,0.001l-4.249,4.256Zm-9.101,14.982l9.92,-9.92c0.391,-0.391 0.391,-1.024 0,-1.415c0,0 -2.828,-2.828 -2.828,-2.828c-0.391,-0.391 -1.024,-0.391 -1.414,-0l-0.858,0.857l1.108,1.108c0.39,0.39 0.39,1.024 -0,1.414c-0.39,0.391 -1.024,0.391 -1.414,0l-1.108,-1.107l-1.6,1.6l1.108,1.107c0.39,0.39 0.39,1.024 -0,1.414c-0.391,0.391 -1.024,0.391 -1.414,0l-1.108,-1.107l-1.572,1.571l1.108,1.108c0.39,0.39 0.39,1.024 -0,1.414c-0.39,0.391 -1.024,0.391 -1.414,0l-1.108,-1.107l-1.65,1.65l4.244,4.241Z"/></svg>